<svg width="49" height="48" viewBox="0 0 49 48" fill="none" xmlns="http://www.w3.org/2000/svg">
<g clip-path="url(#clip0_175_25)">
<path d="M8.9628 6.88931H9.18977L9.0082 6.79925L8.9628 6.88931ZM9.55292 6.61914C9.55292 6.66417 9.55292 6.66417 9.59832 6.66417L9.77989 6.52908C9.6891 6.48405 9.64371 6.48405 9.55292 6.61914ZM7.78257 7.8349L7.91875 7.74484C7.96414 7.69981 7.96414 7.65479 7.96414 7.65479H7.87335L7.78257 7.8349C7.73717 7.8349 7.73717 7.78987 7.78257 7.8349ZM8.78123 6.52908H8.73584L8.64505 6.61914H8.78123V6.52908ZM7.82796 7.60976L8.10032 7.38462C8.14572 7.33959 8.14572 7.29456 8.14572 7.24953H8.00954L7.46481 7.74484L7.37402 7.92495L7.69178 7.65479L7.82796 7.60976Z" fill="url(#paint0_linear_175_25)"/>
<path d="M4.3777 11.257V11.167C4.3952 11.0678 4.43228 10.9729 4.4868 10.8879C4.54133 10.8029 4.61224 10.7294 4.69546 10.6717L5.104 10.4015L5.33097 10.1313L5.64872 9.81615L5.8303 9.63603L6.01187 9.50095C6.17402 9.4085 6.30147 9.26627 6.37502 9.0957L6.5566 8.87056C6.73465 8.69735 6.88744 8.50032 7.01054 8.28519L7.10132 8.15011L7.2375 8.06005L7.14672 7.92497L7.32829 7.69983C7.69144 7.42966 7.9638 7.06943 8.32695 6.79926L8.46314 6.66418C8.51142 6.55459 8.59014 6.46088 8.6901 6.39401L9.05325 6.2139H9.23483C9.36846 6.16201 9.48046 6.06679 9.55259 5.94373V5.85367C9.68655 5.59332 9.89087 5.37506 10.1427 5.22328L10.5059 4.99814L10.5966 4.90808L10.7782 4.72797L11.2322 4.50283H11.3229L10.8236 4.68294L10.1881 5.13322C9.91573 5.35836 9.55259 5.40339 9.37101 5.76361H9.50719C9.18944 5.85367 8.87168 5.98876 8.7355 6.30395C8.59932 6.61915 8.37235 6.57412 8.19077 6.70921C8.15082 6.71942 8.11557 6.74282 8.09082 6.77555C8.06606 6.80829 8.05329 6.84842 8.05459 6.88932C7.69144 6.84429 7.55526 7.11446 7.37369 7.29457V7.6548C7.0774 7.79415 6.82596 8.01239 6.64739 8.28519C5.92109 8.33022 5.92109 9.23078 5.28557 9.41089H5.24018C5.23221 9.42458 5.22802 9.44011 5.22802 9.45592C5.22802 9.47173 5.23221 9.48726 5.24018 9.50095C5.104 9.50095 5.01321 9.59101 5.05861 9.72609L4.96782 9.95123C4.65006 10.1313 4.69546 10.4465 4.51388 10.7167C4.15073 10.9419 4.01455 11.3921 3.74219 11.7073L3.87837 11.9325L3.96916 11.8424C4.09176 11.6383 4.22826 11.4427 4.3777 11.257ZM24.4417 1.48594L24.7141 1.576H24.8049C25.001 1.67458 25.2243 1.70623 25.4404 1.66605C25.7275 1.61377 26.0229 1.62919 26.3029 1.71108H26.8476C26.9428 1.69071 27.0414 1.69229 27.1358 1.71571C27.2303 1.73913 27.318 1.78377 27.3923 1.84617C27.3963 1.85301 27.3984 1.86078 27.3984 1.86868C27.3984 1.87658 27.3963 1.88435 27.3923 1.89119H27.2107C27.2068 1.89804 27.2047 1.9058 27.2047 1.91371C27.2047 1.92161 27.2068 1.92938 27.2107 1.93622H27.5285C27.7183 1.8633 27.9288 1.8633 28.1186 1.93622C28.2094 1.93622 28.164 1.98125 28.2094 2.02628L28.4364 2.11633H28.3456C28.2548 1.93622 28.1186 1.93622 27.9824 1.93622C27.3716 1.65484 26.7038 1.5162 26.0305 1.53097H25.6674C25.1386 1.37073 24.5845 1.30965 24.0332 1.35086H24.124L24.4417 1.48594ZM31.16 3.10695C31.2176 3.16575 31.2918 3.20583 31.3729 3.22191C31.4539 3.23799 31.538 3.22931 31.6139 3.19701H31.8863C31.6547 3.00832 31.3685 2.89789 31.0692 2.88181L30.7515 2.79176L30.9784 2.92684L31.16 3.10695ZM29.6166 2.52159C29.6166 2.56662 29.662 2.61164 29.7074 2.65667H29.7982L30.0252 2.52159C29.7907 2.37719 29.5274 2.28501 29.2535 2.25142L29.5712 2.43153L29.6166 2.52159ZM32.9757 3.73735L33.3389 3.96249C33.2481 3.8274 33.1573 3.73735 32.9757 3.73735Z" fill="url(#paint1_linear_175_25)"/>
<path d="M44.9146 34.2664L45.1869 33.546L45.4593 32.8705C45.5501 32.6454 45.7317 32.06 45.8224 31.6998C45.8432 31.5859 45.8898 31.4781 45.9586 31.3846H46.004V30.8893C46.231 30.8443 46.1856 30.6191 46.231 30.4841L46.5941 28.3677C46.8266 27.4514 46.8266 26.4923 46.5941 25.576C46.6144 25.4467 46.6044 25.3145 46.5651 25.1896C46.5257 25.0647 46.458 24.9504 46.3672 24.8555V22.9193C46.231 22.5141 46.5034 22.0638 46.1856 21.7036L45.8224 20.2627C45.8301 20.2331 45.8301 20.2021 45.8224 20.1726L45.7317 19.9024C45.7192 19.874 45.7127 19.8434 45.7127 19.8124C45.7127 19.7814 45.7192 19.7507 45.7317 19.7223H45.7771C45.9132 19.7223 45.9132 19.4972 45.9132 19.3171C45.8861 19.1417 45.8244 18.9734 45.7317 18.8218L45.5955 18.6417C45.53 18.5499 45.498 18.4387 45.5047 18.3265C45.5203 18.0234 45.4896 17.7198 45.4139 17.4259V17.1557C45.3231 16.8405 45.2323 16.4803 45.1415 16.1651L45.0508 15.94C44.9516 15.7914 44.8893 15.6217 44.8692 15.4447C44.845 15.3177 44.7989 15.1959 44.733 15.0844L44.4606 14.6341C44.4238 14.6016 44.3806 14.5768 44.3338 14.5613C44.287 14.5458 44.2375 14.5399 44.1883 14.5441H44.1429V14.409H44.0521V14.0488H44.0067V13.9587C44.0086 13.9438 44.0086 13.9286 44.0067 13.9137V13.8236C44.0521 13.7336 44.0521 13.6886 43.9613 13.5985C43.883 13.5215 43.8213 13.4296 43.7797 13.3283L43.6889 13.0582C43.6287 12.8552 43.5197 12.6697 43.3712 12.5178C43.2754 12.4286 43.1982 12.3215 43.1442 12.2026L42.8265 11.4822C42.7567 11.3205 42.6651 11.169 42.5541 11.0319L42.2817 10.6717C42.199 10.5639 42.1374 10.4417 42.1002 10.3114L42.0094 10.1764C41.9856 10.1444 41.9692 10.1077 41.9614 10.0688C41.9535 10.0299 41.9544 9.98975 41.964 9.95122C41.964 9.91627 41.9558 9.88179 41.94 9.85053C41.9243 9.81927 41.9014 9.79208 41.8732 9.7711L41.6916 9.63602V9.72608C41.737 9.81613 41.6916 9.86116 41.6462 9.86116H41.5554L41.6916 10.3114L41.8278 10.5366L42.1456 10.9418H42.1002L42.0094 10.8518L41.9186 10.7617C41.8982 10.63 41.8331 10.5091 41.7341 10.419C41.635 10.329 41.5079 10.2751 41.3739 10.2664V9.95122C41.2377 9.41088 40.6476 9.36585 40.3752 9.00563C40.3322 8.90239 40.2641 8.81134 40.177 8.74061C40.0899 8.66989 39.9864 8.6217 39.8759 8.60037L39.5127 8.19512C39.1355 7.65938 38.6577 7.20074 38.1055 6.84427L37.7424 6.57411L37.5608 6.43902C37.243 6.12382 37.1068 5.62851 36.5621 5.62851L36.199 5.40337L35.7904 5.08818C35.7188 4.9275 35.6054 4.78861 35.4618 4.68574C35.3182 4.58288 35.1496 4.51974 34.9733 4.50281C34.6781 4.23644 34.3184 4.05031 33.9293 3.96247L34.0201 4.05253L34.247 4.23264L34.8372 4.54784C35.1908 4.73728 35.5124 4.98036 35.7904 5.26829C35.9935 5.46355 36.2226 5.63021 36.4713 5.7636L36.7437 5.98874C36.7891 6.03377 36.8345 6.0788 36.7891 6.12382H36.7437L36.3352 5.98874C36.0119 5.92807 35.7036 5.80574 35.4273 5.62851L34.8826 5.35835L34.2924 5.04315H34.2017C34.0655 4.99812 34.0201 4.86304 33.8385 4.81801L33.4754 4.72795L32.3405 4.50281C32.1825 4.42902 32.043 4.32137 31.932 4.18761C31.7856 4.18195 31.6439 4.1351 31.5234 4.05253L31.0695 3.87242C30.6367 3.7864 30.2117 3.66593 29.7985 3.51219L29.5261 3.42214L29.0722 3.28705H28.8452L28.7544 3.15197V3.10694H28.0281L27.7557 2.8818L27.5742 2.97185L27.3926 3.06191H27.3018L26.8933 2.83677C26.6209 3.10694 26.3939 2.74671 26.167 2.79174L25.713 2.65666C25.6302 2.70408 25.5363 2.72905 25.4407 2.72905C25.345 2.72905 25.2511 2.70408 25.1683 2.65666H24.6236C24.5595 2.64591 24.5013 2.61277 24.4597 2.56322C24.4181 2.51367 24.3957 2.45098 24.3966 2.38649L24.5328 2.29643H24.8052C24.8305 2.33744 24.846 2.38364 24.8505 2.43152C24.8505 2.52157 24.9413 2.52157 25.0775 2.52157H25.1683L24.9867 2.2514C24.924 2.20116 24.85 2.16672 24.7709 2.15104C24.6919 2.13536 24.6102 2.13889 24.5328 2.16135L24.0788 2.29643H24.0335C24.1696 2.38649 24.1242 2.43152 24.1242 2.52157H23.3979L23.2164 2.43152L22.8532 2.2514H22.8078L22.4901 2.16135H21.446L21.6276 2.07129L21.9907 1.98123H22.1269L22.8986 1.84615L23.3979 1.75609L23.6703 1.66604H23.171C22.6619 1.56168 22.1367 1.56168 21.6276 1.66604H21.0375L19.4941 1.62101C18.8586 1.66604 18.2231 1.62101 17.7237 2.16135C16.5889 1.98123 15.5902 2.47654 14.5916 2.97185L13.5929 3.37711C12.9612 3.46584 12.3736 3.74939 11.9133 4.18761H12.0495L12.2765 4.05253L12.6396 3.82739L13.2298 3.55722L13.6837 3.46716C13.9586 3.2779 14.2664 3.14052 14.5916 3.06191L15.0001 2.92683H15.0909C15.1363 3.01688 15.3179 2.92683 15.4086 2.92683H15.4994C15.5448 2.92683 15.5448 2.97185 15.4994 2.97185L15.2271 3.15197L15.681 3.01688L16.0442 2.92683L15.454 3.24202L14.8639 3.42214C14.8056 3.43962 14.7515 3.46856 14.7047 3.50724C14.6579 3.54592 14.6194 3.59354 14.5916 3.64728L14.4554 3.87242H14.5916L14.7731 3.78236C14.8198 3.7127 14.8799 3.65294 14.95 3.60656C15.0202 3.56017 15.0989 3.5281 15.1817 3.51219L15.8626 3.28705H16.0896C16.1016 3.28108 16.1155 3.2801 16.1283 3.28432C16.1411 3.28854 16.1516 3.29762 16.1576 3.30956C16.1637 3.32151 16.1647 3.33533 16.1604 3.348C16.1561 3.36067 16.147 3.37114 16.1349 3.37711C16.0442 3.46716 15.8626 3.51219 15.7718 3.60225H15.8626L14.41 4.0075L12.685 4.72795C12.3886 4.99267 12.0294 5.17856 11.641 5.26829C11.411 5.47178 11.1507 5.63885 10.8693 5.7636L10.5061 5.85366C10.4556 5.96901 10.3735 6.06807 10.2693 6.13967C10.165 6.21127 10.0427 6.25257 9.91601 6.25891L9.77983 6.48405C9.63757 6.68722 9.45149 6.85642 9.2351 6.97936H9.18971V6.93433L9.09892 7.02439L9.00813 7.11444L8.5542 7.2045H8.32723L8.14565 7.42964C8.10026 7.47467 8.10026 7.5197 8.14565 7.5197H8.19105C7.91868 7.78987 7.73711 8.15009 7.37396 8.28518L6.78384 8.9606C6.51148 9.50094 5.96675 9.68105 5.6036 10.1313C5.24045 10.5816 4.96809 11.8874 3.83325 12.0675L3.74246 11.9325L3.65167 12.1576C3.61176 12.2868 3.55039 12.4086 3.4701 12.5178C3.26599 12.8197 3.08395 13.1357 2.92537 13.4634C2.88589 13.5315 2.86995 13.6106 2.87998 13.6886C2.88686 13.8149 2.85523 13.9405 2.78919 14.0488L2.56222 14.5441H2.65301C2.78919 14.5441 2.78919 14.6792 2.83459 14.8143L3.19774 14.3189C3.26506 14.196 3.35789 14.0886 3.4701 14.0038C3.64713 13.9164 3.79058 13.7741 3.87864 13.5985L4.01482 13.4634L4.1964 13.2833L4.46876 12.788H4.55955C4.60494 12.833 4.60494 12.833 4.65034 12.788L4.74112 12.6079H4.96809V12.9681L5.19506 12.743C5.21498 12.7087 5.22547 12.6699 5.22547 12.6304C5.22547 12.5909 5.21498 12.552 5.19506 12.5178C5.19297 12.4934 5.19592 12.4689 5.20373 12.4456C5.21153 12.4224 5.22403 12.401 5.24045 12.3827C5.30026 12.3172 5.34652 12.2408 5.37664 12.1576C5.39973 12.066 5.44482 11.9813 5.50806 11.9107C5.57129 11.8402 5.65079 11.7858 5.73978 11.7523L5.87597 11.6623L6.01215 11.5272C6.17208 11.4125 6.2976 11.2569 6.3753 11.0769L6.28451 10.9418C6.28451 10.8968 6.3299 10.8068 6.3753 10.7617H6.60227L6.87463 10.4015L7.14699 10.2664H7.23778C6.30601 11.268 5.47019 12.3533 4.74112 13.5084C3.72466 15.0803 2.91608 16.7752 2.33526 18.5516H2.10829L1.88132 18.3715C1.79053 18.2814 1.83592 18.0563 1.69974 17.9662H1.74514C1.88132 17.7411 1.69974 17.4259 1.88132 17.2008C2.06289 16.9756 1.92671 16.5704 1.47277 16.6604C1.01884 16.7505 0.791868 16.8856 0.882656 17.3358C0.973443 17.7861 0.428719 18.1463 0.383325 18.6417C0.337931 19.137 0.156356 18.8668 0.247144 19.0469V20.803C0.292537 21.1632 0.020175 21.6135 0.610293 21.7486L1.20041 22.1538C1.24581 22.379 0.973443 22.8743 1.60896 22.7392C1.52505 23.4869 1.4796 24.2383 1.47277 24.9906C1.47277 25.4859 1.51817 25.9812 1.51817 26.4765V26.2964C1.47277 26.1163 1.47277 25.9362 1.42738 25.7111L1.2912 25.8462V25.7561H1.06423C1.06423 25.9812 1.01884 26.1163 0.882656 26.1614C0.845961 26.2305 0.830197 26.3087 0.837262 26.3865C0.837262 26.4315 0.882656 26.5216 0.92805 26.4765C0.973443 26.4315 1.10962 26.5666 1.24581 26.6567C1.38199 26.7467 1.15502 26.7917 1.06423 26.7467C0.973443 26.7017 0.973443 26.7917 0.973443 26.8818V27.0169L1.20041 27.6923C1.20041 27.8274 1.15502 27.9625 1.15502 28.0976C1.15502 28.2232 1.1862 28.3469 1.24581 28.4578H1.10962V28.3227L0.791868 28.2326V27.9625C0.804567 27.888 0.804567 27.8119 0.791868 27.7373C0.729481 27.4702 0.683999 27.1996 0.655687 26.9268C0.569431 26.4062 0.538999 25.8779 0.5649 25.3508C0.557835 25.273 0.573599 25.1948 0.610293 25.1257V25.2158C0.63206 25.2893 0.647249 25.3647 0.655687 25.4409C0.654694 25.5038 0.670345 25.5659 0.701081 25.621C0.746475 25.7111 0.791868 25.8011 0.882656 25.8011C0.973443 25.8011 0.92805 25.7561 0.92805 25.7111C0.922194 25.6345 0.90695 25.5589 0.882656 25.4859C0.80611 25.2993 0.760136 25.1016 0.746475 24.9006C0.729173 24.7856 0.682267 24.6771 0.610293 24.5854C0.540601 24.462 0.509028 24.3211 0.519506 24.1801V23.8199C0.519506 23.6848 0.5649 23.5497 0.5649 23.4146C0.570678 23.3831 0.569618 23.3508 0.56179 23.3197C0.553963 23.2887 0.539547 23.2596 0.519506 23.2345H0.474112C0.110962 23.4146 0.156356 23.3246 0.020175 23.955V24.7655C0.020175 25.0807 -0.0252187 25.3959 0.020175 25.7111C0.0130463 26.0585 0.0434827 26.4057 0.110962 26.7467C0.121521 26.8214 0.121521 26.8972 0.110962 26.9719C0.106015 27.1084 0.121309 27.245 0.156356 27.3771C0.193243 27.57 0.208467 27.7663 0.20175 27.9625C0.174493 28.2212 0.205502 28.4826 0.292537 28.728C0.302696 28.7876 0.302696 28.8485 0.292537 28.9081C0.284072 29.0299 0.299487 29.1523 0.337931 29.2683C0.380966 29.4002 0.411363 29.5359 0.428719 29.6735C0.477385 30.0093 0.553288 30.3406 0.655687 30.6642C0.701342 30.8108 0.731763 30.9617 0.746475 31.1144C0.767254 31.2284 0.813816 31.3361 0.882656 31.4296C0.998559 31.5904 1.07617 31.7752 1.10962 31.97C1.14567 32.1227 1.19115 32.2731 1.24581 32.4203L1.42738 33.0507C1.48351 33.2881 1.57533 33.5158 1.69974 33.7261C1.86245 34.0239 1.98457 34.3419 2.06289 34.6717L2.15368 34.8968C2.26897 35.0238 2.3474 35.1794 2.38065 35.3471C2.41439 35.4787 2.47632 35.6016 2.56222 35.7073C2.61267 35.7727 2.64407 35.8506 2.65301 35.9325C2.69841 36.0675 2.7438 36.1126 2.83459 36.0675H2.87998V36.4728L3.10695 36.9231L3.33392 37.3734L3.83325 37.9137L4.01482 38.0938C4.151 38.2289 4.33258 38.319 4.42337 38.5441L4.60494 38.6792C4.64262 38.7048 4.67429 38.7382 4.69779 38.777C4.72129 38.8159 4.73607 38.8593 4.74112 38.9043L4.83191 39.2195C4.89961 39.3685 4.99163 39.5055 5.10427 39.6248L5.28585 39.7148H5.42203C5.4351 39.7194 5.44696 39.7268 5.45668 39.7366C5.4664 39.7464 5.47373 39.7583 5.47811 39.7713C5.48249 39.7844 5.48381 39.7982 5.48196 39.8118C5.4801 39.8255 5.47513 39.8385 5.46742 39.8499C5.45984 39.9248 5.45984 40.0002 5.46742 40.0751C5.49808 40.1696 5.5627 40.2498 5.649 40.3002H5.73978C5.92136 40.2552 6.10293 40.3902 6.28451 40.6154H6.3299C6.3299 40.5704 6.3753 40.5704 6.3299 40.5253V40.4353C6.3299 40.3902 6.3753 40.3452 6.42069 40.3902C6.46438 40.4204 6.49974 40.4609 6.52353 40.5081C6.54733 40.5553 6.55879 40.6077 6.55687 40.6604V40.7505C6.59021 40.9385 6.6514 41.1206 6.73845 41.2908C6.96542 41.4259 6.96542 41.4259 6.96542 41.3358C6.96542 41.2458 6.96542 41.2458 7.0562 41.2458H7.23778L7.32857 41.3809L7.69172 41.606C8.00947 41.9662 8.5088 41.9212 8.87195 42.1463L9.64365 42.9118H9.73443C9.80064 43.0741 9.89905 43.2215 10.0238 43.3452C10.1486 43.469 10.2972 43.5666 10.4607 43.6323C10.51 43.7093 10.5766 43.7738 10.6554 43.8207C10.7343 43.8676 10.823 43.8956 10.9147 43.9024C10.9147 44.1276 11.187 44.1726 11.414 44.2176C11.5071 44.3219 11.6372 44.3864 11.7772 44.3978H11.8679C11.9546 44.4872 12.0618 44.5544 12.1804 44.5936C12.299 44.6328 12.4255 44.6429 12.5488 44.6229L12.9574 44.9831L14.0468 45.3884V45.4784C14.2738 45.9737 14.8185 45.7936 15.1817 45.9287L15.681 46.1088H15.8626C16.4073 46.2439 16.952 46.5141 17.5422 46.334C17.5245 46.3927 17.5245 46.4553 17.5422 46.5141C18.0415 46.8293 18.6316 46.5141 19.1763 46.6942C19.4232 46.7855 19.692 46.8012 19.948 46.7392H19.9934L20.3566 46.8293H20.4927L20.9013 46.9193H21.0375C21.072 46.8996 21.1111 46.8892 21.151 46.8892C21.1908 46.8892 21.2299 46.8996 21.2644 46.9193C21.4849 47.0014 21.713 47.0617 21.9453 47.0994H22.2177C22.266 47.0718 22.3208 47.0572 22.3766 47.0572C22.4324 47.0572 22.4872 47.0718 22.5355 47.0994H24.3058C24.5488 47.1233 24.794 47.1081 25.0321 47.0544H25.4861L25.713 46.9644H27.211L27.4834 46.8743L27.7103 46.7392H28.709V47.0094H28.1189L27.5742 47.0994C27.3926 47.1445 27.2564 47.0994 27.1202 47.1445C26.9772 47.2064 26.8224 47.2371 26.6663 47.2345L26.0762 47.3696H25.8946C25.6673 47.329 25.4335 47.3444 25.2137 47.4146H24.3966C24.3324 47.4432 24.2627 47.458 24.1923 47.458C24.1219 47.458 24.0523 47.4432 23.9881 47.4146H21.9453C21.8572 47.398 21.7665 47.4016 21.68 47.425C21.5934 47.4484 21.5134 47.4911 21.446 47.5497H21.3098L21.1737 47.4597V47.3246H20.6289C20.441 47.2479 20.2416 47.2023 20.0388 47.1895H18.904L18.5862 47.0994L18.3592 47.0094L17.406 46.8293H17.179L16.952 46.7392L15.9988 46.424L15.3633 46.2439H14.3646C14.3192 46.2439 14.3192 46.2889 14.3192 46.334H14.41C15.0001 46.5591 15.5902 46.7392 16.1803 47.0094H16.3165L16.7251 47.0994L17.3606 47.2796H17.9507L18.2231 47.3696L18.5408 47.5047L19.3125 47.6398L19.8118 47.7298L20.3112 47.8199H20.6743L21.0375 47.91H22.4447L22.8986 48H23.9427L24.3966 47.91H25.3953C25.5768 47.91 25.6676 47.8649 25.713 47.7749H26.167C26.2338 47.7804 26.301 47.7711 26.3638 47.7477C26.4266 47.7244 26.4834 47.6875 26.5301 47.6398C26.4847 47.6848 26.5301 47.6848 26.5755 47.7298H26.7571V47.6398C26.7571 47.5948 26.7571 47.5947 26.8479 47.5497C26.9387 47.5047 27.1202 47.5047 27.1656 47.5947H27.3472L27.4834 47.5047C27.5742 47.5047 27.5742 47.5047 27.5742 47.5497H27.8919L28.1189 47.4597L28.482 47.2796C28.5274 47.4146 28.6636 47.4597 29.0722 47.3696L29.6623 47.1895H30.207C30.6155 47.1445 31.1149 47.1895 31.4326 46.8743H31.5234L31.705 46.7392L32.2043 46.6041C32.5261 46.5384 32.8335 46.4165 33.1122 46.2439L33.2938 46.1539H33.3392L33.7477 45.8837L33.9293 45.7936L34.1563 45.7036H34.3378C34.5194 45.6585 34.5194 45.6585 34.5648 45.5235C34.6102 45.3884 34.5648 45.4784 34.474 45.4784H34.4286L34.6102 45.2533H34.701C34.8372 45.2083 34.928 45.1632 35.0187 45.2083H35.1095C35.2069 45.1811 35.2957 45.1296 35.3672 45.0586C35.4388 44.9877 35.4907 44.8996 35.5181 44.803C35.6543 44.6229 36.0174 44.7129 36.1082 44.4428L38.0601 43.0469C38.5595 43.0019 38.6956 42.5516 39.0588 42.2814C39.4219 42.0113 40.1028 41.7861 40.4206 41.2908L40.8291 41.1107H40.8745C40.9888 41.1384 41.1095 41.121 41.2111 41.0622C41.3127 41.0034 41.3873 40.9078 41.4193 40.7955V40.9756C41.7824 40.7955 42.2363 41.1107 42.5995 40.7505C42.9626 40.3902 42.5995 39.5347 43.0534 39.0394L43.3712 38.8143C43.7143 38.2312 43.9452 37.5899 44.0521 36.9231L44.1429 36.833C44.1429 36.6979 44.1429 36.5178 44.3245 36.4278C44.405 36.3653 44.459 36.2752 44.4758 36.1751C44.4926 36.0751 44.471 35.9724 44.4152 35.8874H44.3245C44.3364 35.8669 44.3427 35.8436 44.3427 35.8199C44.3427 35.7962 44.3364 35.7729 44.3245 35.7523C44.6422 35.7523 44.6876 35.4372 44.8692 35.3021V34.6717C44.8631 34.642 44.8631 34.6113 44.8692 34.5816C44.8942 34.4782 44.9094 34.3727 44.9146 34.2664Z" fill="url(#paint2_linear_175_25)"/>
<path d="M11.9584 4.18761L11.8222 4.27767L11.6407 4.41275L11.8676 4.3227L11.9584 4.18761ZM14.7274 3.28705H14.7728L14.909 3.19699H14.7274V3.28705ZM13.5472 3.73733L13.5018 3.78236H13.5472V3.73733ZM4.1507 11.7974L3.96912 11.9775H4.05991C4.09141 11.9598 4.11688 11.9333 4.13305 11.9012C4.14923 11.8691 4.15537 11.8329 4.1507 11.7974ZM5.51251 10.2214C5.5722 10.1392 5.61818 10.0479 5.64869 9.95122C5.55603 10.0073 5.47821 10.0844 5.42172 10.1764C5.37633 10.2214 5.37633 10.2664 5.42172 10.2664L5.51251 10.2214ZM4.96779 10.8968V10.8068C4.877 10.8068 4.74082 10.9418 4.60464 10.9418V11.0319C4.74082 11.167 4.78621 11.122 4.96779 10.8968ZM33.5204 4.14259H33.5658L33.3389 4.0075L33.5204 4.14259ZM32.3856 3.51219C32.6126 3.46716 32.7487 3.6923 32.9303 3.73733H32.9757L32.8395 3.64728L32.3856 3.42214L31.8863 3.19699L32.0224 3.28705L32.3856 3.51219ZM29.2534 2.29643H29.208L28.6633 2.20638H28.8903L29.2534 2.29643ZM30.1613 2.61163L30.7514 2.79174C30.5695 2.69171 30.3685 2.63037 30.1613 2.61163ZM26.0759 2.61163C26.1263 2.54623 26.1577 2.46836 26.1667 2.38649H25.9397L25.8035 2.52157L25.9851 2.65666L26.0759 2.61163ZM28.2548 2.74671C28.2533 2.76168 28.2533 2.77677 28.2548 2.79174V2.74671ZM48.5912 26.2964H48.455V26.1163H48.5912C48.6366 26.1163 48.6819 25.9812 48.6366 25.9362C48.5912 25.8912 48.5912 25.621 48.5004 25.576C48.4725 25.5663 48.4486 25.5478 48.4322 25.5235C48.4159 25.4991 48.4079 25.4701 48.4096 25.4409L48.5004 25.2608C48.5081 25.2313 48.5081 25.2003 48.5004 25.1707H48.4096L48.3188 25.0356C48.2734 25.1707 48.228 25.3058 48.1372 25.3508C48.1311 25.3806 48.1311 25.4112 48.1372 25.4409C48.1372 25.4859 48.1372 25.531 48.0918 25.531H48.0464C48.0379 25.5779 48.0227 25.6234 48.001 25.666C47.9117 25.7865 47.8498 25.9248 47.8195 26.0713C47.8098 26.1026 47.809 26.1359 47.817 26.1676C47.825 26.1993 47.8415 26.2283 47.8649 26.2514H47.9103C47.8662 26.3661 47.8507 26.4897 47.8649 26.6116V26.7917C47.8606 26.8685 47.8453 26.9444 47.8195 27.0169H47.7741L47.5925 27.3321V27.6023C47.6146 27.7787 47.5657 27.9567 47.4563 28.0976H47.3655L47.2747 28.0075C47.2395 27.9551 47.217 27.8953 47.2091 27.8327C47.2012 27.7702 47.2082 27.7067 47.2293 27.6473C47.2783 27.3952 47.2935 27.1378 47.2747 26.8818C47.2747 26.8368 47.2293 26.7917 47.2293 26.7917C47.1999 26.8307 47.184 26.8781 47.184 26.9268V27.197C47.184 27.2871 47.1386 27.4672 47.0478 27.5122C46.957 27.5572 47.0024 27.6023 47.0024 27.6473L46.9116 27.9174L47.0478 28.1426C46.957 28.2326 46.8662 28.1876 46.8208 28.0976V28.5478H46.957V28.728C46.8756 28.9288 46.8295 29.142 46.8208 29.3583C46.8171 29.4183 46.8171 29.4785 46.8208 29.5385C46.8233 29.7372 46.7926 29.935 46.73 30.1238C46.7163 30.2134 46.7163 30.3045 46.73 30.394L46.5938 30.7092C46.5613 30.8193 46.5155 30.9251 46.4577 31.0244L46.3215 31.2946L45.9129 32.5103C46.0491 32.9156 45.7314 33.1857 45.5498 33.4559C45.5753 33.6447 45.5557 33.8368 45.4926 34.0167C45.4295 34.1965 45.3247 34.3592 45.1866 34.4916V34.6717C45.1866 34.7167 45.232 34.7617 45.3228 34.7167L45.5044 34.5816L45.5952 34.4015H45.686C45.7314 34.4465 45.7767 34.4465 45.8675 34.3565H45.9583C45.9948 34.3903 46.019 34.4351 46.0272 34.4839C46.0354 34.5328 46.0272 34.5829 46.0037 34.6266C45.9718 34.744 45.9565 34.8653 45.9583 34.9869C45.9583 35.0319 45.9583 35.0769 46.0037 35.0769H46.0945C46.1399 35.122 46.1853 35.0769 46.2307 34.9418L46.3215 34.7167H46.4577C46.6392 34.6717 46.6392 34.6717 46.73 34.4465L46.957 34.0413L47.0932 33.7711L47.2747 33.3208C47.2681 33.1599 47.3161 33.0013 47.4109 32.8705C47.4421 32.8336 47.4627 32.7891 47.4707 32.7416C47.4787 32.6941 47.4737 32.6453 47.4563 32.6004C47.4563 32.5103 47.4563 32.4653 47.5471 32.3302L47.6833 32.1501L47.9103 31.6998C47.9271 31.5621 47.9575 31.4264 48.001 31.2946C48.0902 31.1121 48.1367 30.912 48.1372 30.7092C48.1654 30.569 48.2111 30.4329 48.2734 30.3039V30.0788C48.228 29.9887 48.228 29.9887 48.2734 29.8086C48.3188 29.6285 48.3188 29.7186 48.3642 29.7186C48.3806 29.7369 48.3931 29.7583 48.4009 29.7815C48.4087 29.8047 48.4117 29.8293 48.4096 29.8537L48.5004 29.6285C48.5579 29.5009 48.5888 29.363 48.5912 29.2233V29.0882C48.5912 29.0432 48.5912 28.9531 48.5458 28.9531V29.1332C48.455 29.1332 48.4096 29.2233 48.3188 29.2683C48.3415 29.1493 48.3567 29.029 48.3642 28.9081L48.5458 28.818C48.5812 28.7832 48.6079 28.7406 48.6237 28.6937C48.6394 28.6467 48.6439 28.5968 48.6366 28.5478C48.6317 28.5029 48.6317 28.4577 48.6366 28.4128C48.698 28.2082 48.7286 27.9958 48.7273 27.7824V27.6923L48.8635 27.242H48.9089C48.9284 27.2259 48.943 27.2048 48.951 27.1809C48.959 27.157 48.9602 27.1314 48.9543 27.1069H48.9089C48.894 27.0441 48.8945 26.9786 48.9103 26.9159C48.9261 26.8532 48.9567 26.7952 48.9997 26.7467C48.9716 26.6453 48.9201 26.5518 48.8492 26.4736C48.7783 26.3954 48.6899 26.3348 48.5912 26.2964ZM4.1053 13.8687C4.11569 13.8395 4.11569 13.8077 4.1053 13.7786L4.01452 13.6886L3.92373 13.7786L3.78755 14.0488C3.78755 14.1839 3.65137 14.3189 3.65137 14.454V14.5441H3.69676L4.1053 13.8687ZM47.8195 25.0356H47.8649C47.9613 24.8728 47.9936 24.6804 47.9556 24.4953C47.9475 24.4531 47.9518 24.4095 47.9679 24.3696C47.984 24.3297 48.0112 24.2952 48.0464 24.2702H48.0918V24.1801L48.001 24.0901H47.9556C47.9103 24.1351 47.8649 24.2251 47.8195 24.2251C47.7741 24.2251 47.7741 24.2702 47.7741 24.3602V24.4953C47.7383 24.6761 47.754 24.8632 47.8195 25.0356ZM5.96645 40.5704C5.92105 40.5704 5.96645 40.6604 5.96645 40.7054L6.3296 41.0657H6.37499C6.2842 40.9306 6.23881 40.7955 6.2842 40.7505C6.20105 40.7441 6.12185 40.7127 6.05723 40.6604L5.96645 40.5704ZM48.228 24.6304H48.2734C48.2871 24.5409 48.2871 24.4498 48.2734 24.3602C48.1372 24.4053 48.1372 24.4053 48.1372 24.6304C48.1372 24.8555 48.1826 24.6754 48.228 24.6304Z" fill="url(#paint3_linear_175_25)"/>
<path d="M48.4099 27.9175C48.4337 27.8855 48.45 27.8488 48.4579 27.8099C48.4657 27.771 48.4648 27.7308 48.4553 27.6923C48.4553 27.6473 48.4099 27.6023 48.4099 27.6473H48.3191V27.7373C48.3191 27.9175 48.3645 27.9625 48.4099 27.9175ZM48.4553 24.2251H48.4099V24.4953C48.4529 24.4121 48.4688 24.3177 48.4553 24.2251ZM7.7371 41.6961H7.64631V41.7861L7.7371 41.8762H7.82789V41.7861L7.7371 41.6961ZM47.0481 26.7017C47.0481 26.6567 47.0481 26.6567 47.0027 26.6567L47.0481 26.7017ZM4.46875 38.9494L4.69572 39.1745L4.51414 38.9043L4.46875 38.9494Z" fill="url(#paint4_linear_175_25)"/>
<path d="M42.1454 10.5816L42.0546 10.4465H42.0092L42.1454 10.5816ZM2.60742 14.5891C2.63369 14.566 2.64995 14.5338 2.65282 14.4991V14.5891H2.60742ZM7.41916 41.651H7.37376C7.41916 41.6961 7.46455 41.651 7.41916 41.606V41.651ZM7.50994 41.9662H7.55534L7.50994 41.9212V41.9662Z" fill="url(#paint5_linear_175_25)"/>
<path d="M23.0698 14.689L22.7319 19.13C22.6474 21.0153 25.4772 21.1829 25.6039 19.3395L25.8573 14.8566C25.9841 13.0132 23.1542 12.8037 23.0698 14.689ZM13.44 8.94932C13.4822 8.94932 35.0648 8.61415 35.1492 8.73984C36.5008 9.91292 36.1629 37.8574 35.2759 38.6534C34.8536 38.9886 30.3766 39.2399 25.5617 39.2818C24.6747 35.2598 25.3505 30.5675 25.3505 30.5675C25.6039 28.6822 22.7741 28.347 22.5629 30.1486C22.5629 30.1905 21.8872 34.8828 22.7319 39.3237C17.917 39.2818 13.5667 39.0724 13.3133 38.6534C12.4686 37.1452 13.3133 9.03311 13.44 8.94932Z" fill="white"/>
</g>
<defs>
<linearGradient id="paint0_linear_175_25" x1="8.57696" y1="6.50215" x2="8.57696" y2="7.92495" gradientUnits="userSpaceOnUse">
<stop stop-color="#FF7000"/>
<stop offset="1" stop-color="#994300"/>
</linearGradient>
<linearGradient id="paint1_linear_175_25" x1="18.5405" y1="1.33838" x2="18.5405" y2="11.9325" gradientUnits="userSpaceOnUse">
<stop stop-color="#FF7000"/>
<stop offset="1" stop-color="#994300"/>
</linearGradient>
<linearGradient id="paint2_linear_175_25" x1="23.3843" y1="1.58777" x2="23.3843" y2="48" gradientUnits="userSpaceOnUse">
<stop stop-color="#FF7000"/>
<stop offset="1" stop-color="#994300"/>
</linearGradient>
<linearGradient id="paint3_linear_175_25" x1="26.3255" y1="2.20638" x2="26.3255" y2="41.0657" gradientUnits="userSpaceOnUse">
<stop stop-color="#FF7000"/>
<stop offset="1" stop-color="#994300"/>
</linearGradient>
<linearGradient id="paint4_linear_175_25" x1="26.466" y1="24.2251" x2="26.466" y2="41.8762" gradientUnits="userSpaceOnUse">
<stop stop-color="#FF7000"/>
<stop offset="1" stop-color="#994300"/>
</linearGradient>
<linearGradient id="paint5_linear_175_25" x1="24.9638" y1="10.4465" x2="24.9638" y2="41.9662" gradientUnits="userSpaceOnUse">
<stop stop-color="#FF7000"/>
<stop offset="1" stop-color="#994300"/>
</linearGradient>
<clipPath id="clip0_175_25">
<rect width="49" height="48" fill="white"/>
</clipPath>
</defs>
</svg>
