<svg width="16" height="16" viewBox="0 0 16 16" fill="none" xmlns="http://www.w3.org/2000/svg">
<path d="M8.00033 5.70933C7.69947 5.70933 7.40156 5.76859 7.1236 5.88372C6.84564 5.99885 6.59309 6.16761 6.38035 6.38035C6.16761 6.59309 5.99885 6.84564 5.88372 7.1236C5.76859 7.40156 5.70933 7.69947 5.70933 8.00033C5.70933 8.30119 5.76859 8.5991 5.88372 8.87706C5.99885 9.15501 6.16761 9.40757 6.38035 9.62031C6.59309 9.83305 6.84564 10.0018 7.1236 10.1169C7.40156 10.2321 7.69947 10.2913 8.00033 10.2913C8.60794 10.2913 9.19066 10.05 9.62031 9.62031C10.05 9.19066 10.2913 8.60794 10.2913 8.00033C10.2913 7.39272 10.05 6.80999 9.62031 6.38035C9.19066 5.9507 8.60794 5.70933 8.00033 5.70933ZM8.00033 4.18133C8.50711 4.17313 9.01046 4.26586 9.48105 4.45413C9.95164 4.6424 10.3801 4.92243 10.7413 5.27792C11.1026 5.6334 11.3896 6.05723 11.5854 6.52471C11.7813 6.99219 11.8821 7.49398 11.8821 8.00083C11.8821 8.50768 11.7813 9.00946 11.5854 9.47694C11.3896 9.94442 11.1026 10.3683 10.7413 10.7237C10.3801 11.0792 9.95164 11.3593 9.48105 11.5475C9.01046 11.7358 8.50711 11.8285 8.00033 11.8203C6.9872 11.8203 6.01557 11.4179 5.29918 10.7015C4.58279 9.98509 4.18033 9.01346 4.18033 8.00033C4.18033 6.9872 4.58279 6.01557 5.29918 5.29918C6.01557 4.58279 6.9872 4.18133 8.00033 4.18133ZM12.9653 3.99033C12.9695 4.11827 12.9478 4.24575 12.9017 4.36517C12.8556 4.48459 12.786 4.59353 12.697 4.6855C12.6079 4.77747 12.5013 4.8506 12.3834 4.90055C12.2655 4.95049 12.1388 4.97623 12.0108 4.97623C11.8828 4.97623 11.7561 4.95049 11.6382 4.90055C11.5204 4.8506 11.4137 4.77747 11.3247 4.6855C11.2357 4.59353 11.166 4.48459 11.1199 4.36517C11.0738 4.24575 11.0522 4.11827 11.0563 3.99033C11.0563 3.73705 11.1569 3.49414 11.336 3.31504C11.5151 3.13594 11.758 3.03533 12.0113 3.03533C12.2646 3.03533 12.5075 3.13594 12.6866 3.31504C12.8657 3.49414 12.9653 3.73705 12.9653 3.99033ZM8.00033 1.89033C6.11033 1.89033 5.80233 1.89433 4.92333 1.93333C4.32333 1.96233 3.92233 2.04233 3.54933 2.18733C3.21833 2.31533 2.97933 2.46933 2.72433 2.72433C2.48433 2.95533 2.30133 3.23733 2.18633 3.54933C2.04133 3.92333 1.96133 4.32433 1.93333 4.92333C1.89333 5.76633 1.88933 6.06133 1.88933 8.00033C1.88933 9.89033 1.89433 10.1993 1.93333 11.0783C1.96233 11.6763 2.04233 12.0783 2.18633 12.4513C2.31633 12.7833 2.46933 13.0223 2.72333 13.2763C2.98033 13.5323 3.21933 13.6863 3.54833 13.8133C3.92533 13.9593 4.32733 14.0403 4.92333 14.0673C5.76633 14.1073 6.06133 14.1113 8.00033 14.1113C9.89033 14.1113 10.1993 14.1063 11.0783 14.0673C11.6753 14.0393 12.0783 13.9593 12.4513 13.8143C12.7813 13.6853 13.0223 13.5323 13.2763 13.2783C13.5333 13.0203 13.6863 12.7813 13.8133 12.4533C13.9593 12.0763 14.0403 11.6733 14.0673 11.0783C14.1073 10.2353 14.1113 9.94033 14.1113 8.00033C14.1113 6.11033 14.1063 5.80233 14.0673 4.92333C14.0393 4.32533 13.9593 3.92233 13.8133 3.54933C13.6982 3.23765 13.5147 2.95574 13.2763 2.72433C13.0455 2.48503 12.7634 2.3011 12.4513 2.18633C12.0773 2.04133 11.6753 1.96133 11.0783 1.93333C10.2353 1.89333 9.94033 1.89033 8.00033 1.89033ZM8.00033 0.361328C10.0763 0.361328 10.3353 0.369328 11.1493 0.407328C11.9633 0.445328 12.5163 0.573328 13.0043 0.762328C13.5083 0.956328 13.9333 1.21933 14.3573 1.64333C14.7463 2.02533 15.0473 2.48733 15.2383 2.99733C15.4273 3.48333 15.5553 4.03733 15.5933 4.85133C15.6293 5.66633 15.6393 5.92533 15.6393 8.00133C15.6393 10.0763 15.6313 10.3353 15.5933 11.1493C15.5553 11.9633 15.4273 12.5163 15.2383 13.0043C15.0473 13.5143 14.7463 13.9763 14.3583 14.3573C13.9762 14.7457 13.5142 15.0463 13.0043 15.2383C12.5173 15.4273 11.9623 15.5553 11.1493 15.5933C10.3353 15.6293 10.0763 15.6393 8.00033 15.6393C5.92533 15.6393 5.66633 15.6313 4.85133 15.5933C4.03833 15.5553 3.48433 15.4273 2.99733 15.2383C2.48724 15.0472 2.02511 14.7469 1.64333 14.3583C1.25505 13.9763 0.954735 13.5143 0.763328 13.0043C0.573328 12.5173 0.445328 11.9623 0.407328 11.1493C0.371328 10.3353 0.361328 10.0763 0.361328 8.00033C0.361328 5.92533 0.369328 5.66633 0.407328 4.85133C0.445328 4.03733 0.573328 3.48433 0.762328 2.99733C0.954328 2.48733 1.25433 2.02533 1.64333 1.64333C2.02519 1.25489 2.4873 0.954561 2.99733 0.763328C3.48433 0.573328 4.03733 0.445328 4.85133 0.407328C5.66633 0.371328 5.92533 0.361328 8.00133 0.361328H8.00033Z" fill="white"/>
</svg>
