<svg width="16" height="13" viewBox="0 0 16 13" fill="none" xmlns="http://www.w3.org/2000/svg">
<path d="M10.621 1.52931C10.0406 1.52948 9.48342 1.75746 9.06938 2.16421C8.65533 2.57097 8.41748 3.12399 8.407 3.70431L8.385 4.90731C8.38392 4.972 8.36912 5.03572 8.34157 5.09426C8.31402 5.1528 8.27436 5.20483 8.2252 5.2469C8.17604 5.28896 8.11852 5.32011 8.05642 5.33828C7.99433 5.35646 7.92908 5.36124 7.865 5.35231L6.673 5.19031C5.104 4.97631 3.601 4.25331 2.159 3.05231C1.702 5.58031 2.594 7.33231 4.743 8.68331L6.077 9.52231C6.14017 9.5624 6.19261 9.61729 6.22976 9.68222C6.26692 9.74716 6.28769 9.82018 6.29025 9.89495C6.29281 9.96972 6.27709 10.044 6.24446 10.1113C6.21183 10.1786 6.16328 10.237 6.103 10.2813L4.887 11.1693C5.611 11.2143 6.297 11.1823 6.867 11.0693C10.471 10.3493 12.867 7.63831 12.867 3.16431C12.867 2.79931 12.094 1.52931 10.621 1.52931ZM6.879 3.67531C6.89232 2.93898 7.12256 2.22293 7.54089 1.61683C7.95923 1.01073 8.54706 0.541504 9.2308 0.2679C9.91455 -0.00570354 10.6638 -0.071525 11.3848 0.0786764C12.1058 0.228878 12.7664 0.588427 13.284 1.11231C13.827 1.10931 14.289 1.24631 15.323 0.620309C15.067 1.87231 14.941 2.41631 14.395 3.16431C14.395 9.00231 10.807 11.8403 7.167 12.5673C4.67 13.0653 1.04 12.2473 0 11.1613C0.53 11.1193 2.684 10.8883 3.93 9.97731C2.876 9.28231 -1.317 6.81531 1.438 0.181308C2.732 1.69131 4.043 2.72031 5.372 3.26531C6.257 3.62831 6.474 3.62031 6.879 3.67631V3.67531Z" fill="white"/>
</svg>
