<svg width="16" height="16" viewBox="0 0 16 16" fill="none" xmlns="http://www.w3.org/2000/svg">
<path d="M4.37404 12.9596L4.92704 13.2836C6.21006 14.0299 7.72083 14.2837 9.17727 13.9976C10.6337 13.7116 11.9363 12.9052 12.8417 11.7291C13.7472 10.553 14.1936 9.08757 14.0977 7.6064C14.0018 6.12524 13.3702 4.7296 12.3206 3.68006C11.2711 2.63053 9.87545 1.99885 8.39428 1.90296C6.91312 1.80707 5.44768 2.25353 4.27158 3.15898C3.09548 4.06443 2.28913 5.36697 2.00306 6.82341C1.717 8.27985 1.97078 9.79062 2.71704 11.0736L3.04004 11.6266L2.54004 13.4606L4.37404 12.9606V12.9596ZM0.364036 15.6396L1.39704 11.8436C0.463711 10.2399 0.14603 8.35127 0.503314 6.53044C0.860598 4.7096 1.86842 3.08106 3.33858 1.94893C4.80874 0.816798 6.64071 0.258481 8.4924 0.378241C10.3441 0.498001 12.0889 1.28765 13.401 2.59973C14.713 3.9118 15.5027 5.6566 15.6224 7.50828C15.7422 9.35997 15.1839 11.1919 14.0518 12.6621C12.9196 14.1323 11.2911 15.1401 9.47025 15.4974C7.64941 15.8547 5.76078 15.537 4.15704 14.6036L0.364036 15.6396ZM5.24404 4.41565C5.3462 4.40815 5.44874 4.40715 5.55104 4.41265L5.67504 4.42465C5.79604 4.43865 5.93004 4.51265 5.97504 4.61465C6.20304 5.13165 6.42504 5.65165 6.63804 6.17365C6.68604 6.28965 6.65804 6.43865 6.56804 6.58365C6.50504 6.68165 6.43804 6.77665 6.36604 6.86765C6.28004 6.97765 6.09404 7.18165 6.09404 7.18165C6.09404 7.18165 6.01904 7.27165 6.04804 7.38365C6.05804 7.42665 6.09404 7.48865 6.12604 7.54065L6.17104 7.61365C6.36604 7.93965 6.62904 8.27065 6.95004 8.58165C7.04104 8.67065 7.13004 8.76165 7.22704 8.84665C7.5849 9.16213 7.98976 9.41989 8.42704 9.61065L8.43004 9.61165C8.49504 9.63965 8.52804 9.65565 8.62304 9.69565C8.67004 9.71565 8.71904 9.73265 8.76904 9.74565C8.82027 9.75859 8.87418 9.75609 8.924 9.73848C8.97382 9.72086 9.01732 9.68892 9.04904 9.64665C9.60204 8.97665 9.65304 8.93365 9.65704 8.93365V8.93465C9.69555 8.89888 9.74125 8.87173 9.79108 8.855C9.84091 8.83827 9.89374 8.83236 9.94604 8.83765C9.99244 8.83967 10.0381 8.84983 10.081 8.86765C10.487 9.05365 11.151 9.34365 11.151 9.34365L11.595 9.54365C11.67 9.57865 11.738 9.66365 11.74 9.74565C11.743 9.79565 11.748 9.87865 11.73 10.0306C11.7081 10.223 11.66 10.4114 11.587 10.5906C11.5462 10.6753 11.4922 10.753 11.427 10.8206C11.3496 10.9016 11.265 10.9752 11.174 11.0406C11.1428 11.0643 11.1112 11.0873 11.079 11.1096C10.984 11.1696 10.886 11.2256 10.786 11.2776C10.5895 11.3821 10.3724 11.4422 10.15 11.4536C10.008 11.4606 9.86704 11.4716 9.72504 11.4636L9.29104 11.3976C8.20509 11.1119 7.20079 10.5767 6.35804 9.83465C6.18504 9.68265 6.02604 9.51965 5.86204 9.35665C5.18204 8.68065 4.66904 7.95065 4.35704 7.26165C4.19746 6.92353 4.11124 6.55546 4.10404 6.18165C4.10126 5.71829 4.25291 5.26722 4.53504 4.89965C4.59104 4.82765 4.64404 4.75265 4.73504 4.66665C4.8008 4.59802 4.87627 4.53939 4.95904 4.49265C5.04753 4.44807 5.14414 4.42188 5.24304 4.41565H5.24404Z" fill="white"/>
</svg>
